<?xml version="1.0" standalone="no"?>
<svg xmlns="http://www.w3.org/2000/svg" viewBox="0 0 1440 170">
	<path id="n10" fill="#ff773d" fill-opacity="1" d="M0,128L60,117.3C120,107,240,85,360,74.7C480,64,600,64,720,69.3C840,75,960,85,1080,85.3C1200,85,1320,75,1380,69.3L1440,64L1440,0L1380,0C1320,0,1200,0,1080,0C960,0,840,0,720,0C600,0,480,0,360,0C240,0,120,0,60,0L0,0Z"></path>
	<path id="n6" fill="#ff773d" fill-opacity="0.4" d="M0,160L48,154.7C96,149,192,139,288,128C384,117,480,107,576,106.7C672,107,768,117,864,112C960,107,1056,85,1152,85.3C1248,85,1344,107,1392,117.3L1440,128L1440,0L1392,0C1344,0,1248,0,1152,0C1056,0,960,0,864,0C768,0,672,0,576,0C480,0,384,0,288,0C192,0,96,0,48,0L0,0Z"></path>
	<path fill="#ff773d" fill-opacity="0.4" d="M0,64L60,85.3C120,107,240,149,360,144C480,139,600,85,720,74.7C840,64,960,96,1080,112C1200,128,1320,128,1380,128L1440,128L1440,0L1380,0C1320,0,1200,0,1080,0C960,0,840,0,720,0C600,0,480,0,360,0C240,0,120,0,60,0L0,0Z"></path>
</svg>